<svg width="3000" height="750" viewBox="0 0 3000 750" fill="none" xmlns="http://www.w3.org/2000/svg">
<rect width="3000" height="750" fill="#161D26"/>
<path d="M572.219 337.816H585.077L613.721 426.04H601.881L594.752 402.743H562.034L555.032 426.04H543.574L572.219 337.816ZM591.824 393.195L578.329 348.637L564.835 393.195H591.824ZM621.437 337.816H634.167L651.354 411.654L666.503 340.49H679.489L694.384 411.909L712.079 337.816H724.301L700.749 426.04H687.636L672.869 357.167L657.974 426.04H644.861L621.437 337.816ZM763.307 427.95C758.724 427.95 754.268 427.44 749.939 426.422C745.611 425.404 741.792 423.961 738.482 422.094V412.927C743.15 414.879 747.393 416.237 751.212 417.001C755.032 417.765 759.063 418.147 763.307 418.147C769.842 418.147 775.019 416.789 778.838 414.073C782.657 411.272 784.567 407.496 784.567 402.743C784.567 400.282 784.185 398.245 783.421 396.632C782.742 395.02 781.469 393.577 779.602 392.304C777.735 391.031 774.976 389.715 771.327 388.357L760.76 384.538C752.273 381.483 746.332 378.088 742.937 374.353C739.543 370.534 737.845 365.484 737.845 359.204C737.845 352.159 740.561 346.515 745.993 342.272C751.509 338.028 758.766 335.907 767.762 335.907C776.08 335.907 783.846 337.604 791.06 340.999V350.165C782.318 347.194 774.552 345.709 767.762 345.709C761.906 345.709 757.408 346.855 754.268 349.146C751.128 351.438 749.557 354.748 749.557 359.076C749.557 362.726 750.661 365.612 752.867 367.733C755.159 369.855 759.615 372.104 766.235 374.481L776.801 378.3C783.846 380.761 788.853 383.859 791.823 387.593C794.794 391.328 796.279 396.335 796.279 402.616C796.279 407.793 794.879 412.291 792.078 416.11C789.277 419.929 785.416 422.857 780.493 424.894C775.571 426.931 769.842 427.95 763.307 427.95ZM913.43 427.95C908.847 427.95 904.391 427.44 900.062 426.422C895.734 425.404 891.915 423.961 888.605 422.094V412.927C893.273 414.879 897.516 416.237 901.335 417.001C905.155 417.765 909.186 418.147 913.43 418.147C919.965 418.147 925.142 416.789 928.961 414.073C932.78 411.272 934.69 407.496 934.69 402.743C934.69 400.282 934.308 398.245 933.544 396.632C932.865 395.02 931.592 393.577 929.725 392.304C927.858 391.031 925.1 389.715 921.45 388.357L910.884 384.538C902.396 381.483 896.455 378.088 893.061 374.353C889.666 370.534 887.968 365.484 887.968 359.204C887.968 352.159 890.684 346.515 896.116 342.272C901.633 338.028 908.889 335.907 917.885 335.907C926.203 335.907 933.969 337.604 941.183 340.999V350.165C932.441 347.194 924.675 345.709 917.885 345.709C912.029 345.709 907.531 346.855 904.391 349.146C901.251 351.438 899.68 354.748 899.68 359.076C899.68 362.726 900.784 365.612 902.99 367.733C905.282 369.855 909.738 372.104 916.358 374.481L926.924 378.3C933.969 380.761 938.976 383.859 941.946 387.593C944.917 391.328 946.402 396.335 946.402 402.616C946.402 407.793 945.002 412.291 942.201 416.11C939.4 419.929 935.539 422.857 930.616 424.894C925.694 426.931 919.965 427.95 913.43 427.95ZM997.785 427.313C990.571 427.313 985.351 425.701 982.126 422.475C978.901 419.25 977.288 413.988 977.288 406.689V370.534H961.247V362.768L977.543 361.623L979.325 341.508H988.618V361.495H1018.15V370.534H988.618V405.544C988.618 410.127 989.467 413.352 991.165 415.219C992.947 417.086 996.002 418.02 1000.33 418.02C1003.22 418.02 1006.31 417.765 1009.62 417.256C1012.93 416.662 1015.99 415.898 1018.79 414.964V423.239C1016.41 424.427 1013.27 425.404 1009.37 426.167C1005.55 426.931 1001.69 427.313 997.785 427.313ZM1058.59 427.95C1052.65 427.95 1048.11 426.295 1044.97 422.985C1041.83 419.675 1040.26 414.922 1040.26 408.726V361.495H1051.59V404.78C1051.59 409.533 1052.48 413.012 1054.26 415.219C1056.04 417.426 1058.93 418.529 1062.92 418.529C1069.79 418.529 1076.54 416.28 1083.16 411.782V361.495H1094.49V426.04H1084.94L1083.79 418.784C1075.73 424.894 1067.33 427.95 1058.59 427.95ZM1138.87 427.95C1130.38 427.95 1123.72 424.979 1118.88 419.038C1114.04 413.012 1111.63 404.737 1111.63 394.213C1111.63 383.689 1114.09 375.329 1119.01 369.134C1124.02 362.853 1130.72 359.713 1139.12 359.713C1142.77 359.713 1146.13 360.307 1149.18 361.495C1152.32 362.683 1155.38 364.593 1158.35 367.224V331.833H1169.68V426.04H1159.62L1158.6 419.929C1155.8 422.475 1152.7 424.47 1149.31 425.913C1145.91 427.271 1142.43 427.95 1138.87 427.95ZM1142.18 418.656C1147.19 418.656 1152.58 416.534 1158.35 412.291V375.372C1155.46 373.08 1152.7 371.468 1150.07 370.534C1147.44 369.516 1144.56 369.006 1141.41 369.006C1135.39 369.006 1130.85 371.086 1127.79 375.244C1124.74 379.403 1123.21 385.556 1123.21 393.704C1123.21 401.767 1124.82 407.962 1128.05 412.291C1131.36 416.534 1136.07 418.656 1142.18 418.656ZM1220.93 427.95C1210.24 427.95 1202.09 425.064 1196.49 419.293C1190.97 413.437 1188.21 404.907 1188.21 393.704C1188.21 383.01 1190.93 374.693 1196.36 368.752C1201.79 362.726 1209.35 359.713 1219.02 359.713C1227.34 359.713 1233.79 362.005 1238.37 366.588C1243.04 371.086 1245.38 377.451 1245.38 385.684C1245.38 389.588 1245.08 393.11 1244.48 396.25H1199.16C1199.59 404.058 1201.62 409.745 1205.27 413.309C1209.01 416.874 1214.69 418.656 1222.33 418.656C1230.14 418.656 1237.4 417.341 1244.1 414.71V422.985C1241.22 424.512 1237.74 425.701 1233.66 426.549C1229.59 427.483 1225.35 427.95 1220.93 427.95ZM1235.06 388.357C1235.15 387.424 1235.19 386.235 1235.19 384.793C1235.19 379.53 1233.79 375.499 1230.99 372.698C1228.19 369.898 1224.11 368.497 1218.77 368.497C1212.91 368.497 1208.33 370.195 1205.02 373.589C1201.71 376.899 1199.76 381.822 1199.16 388.357H1235.06ZM1265.19 361.495H1274.73L1275.88 368.879C1284.2 362.768 1292.81 359.713 1301.72 359.713C1307.83 359.713 1312.5 361.41 1315.73 364.805C1319.04 368.115 1320.69 372.868 1320.69 379.064V426.04H1309.36V383.01C1309.36 378.173 1308.39 374.608 1306.43 372.316C1304.57 370.025 1301.55 368.879 1297.39 368.879C1290.6 368.879 1283.64 371.213 1276.52 375.881V426.04H1265.19V361.495ZM1373.09 427.313C1365.88 427.313 1360.66 425.701 1357.43 422.475C1354.21 419.25 1352.6 413.988 1352.6 406.689V370.534H1336.56V362.768L1352.85 361.623L1354.63 341.508H1363.93V361.495H1393.46V370.534H1363.93V405.544C1363.93 410.127 1364.77 413.352 1366.47 415.219C1368.25 417.086 1371.31 418.02 1375.64 418.02C1378.52 418.02 1381.62 417.765 1384.93 417.256C1388.24 416.662 1391.3 415.898 1394.1 414.964V423.239C1391.72 424.427 1388.58 425.404 1384.68 426.167C1380.86 426.931 1377 427.313 1373.09 427.313ZM1489.61 337.816H1516.98C1525.12 337.816 1531.66 339.938 1536.58 344.182C1541.59 348.425 1544.09 354.069 1544.09 361.113C1544.09 365.527 1543.08 369.346 1541.04 372.571C1539 375.711 1536.07 378.13 1532.25 379.828C1537.69 381.44 1541.84 384.114 1544.73 387.848C1547.62 391.497 1549.06 396.038 1549.06 401.47C1549.06 408.938 1546.47 414.922 1541.29 419.42C1536.12 423.833 1529.2 426.04 1520.54 426.04H1489.61V337.816ZM1520.29 416.874C1531.58 416.874 1537.22 411.612 1537.22 401.088C1537.22 395.911 1535.78 392.007 1532.89 389.376C1530 386.745 1525.76 385.429 1520.16 385.429H1500.68V416.874H1520.29ZM1515.96 376.518C1526.91 376.518 1532.38 371.595 1532.38 361.75C1532.38 356.827 1530.98 353.135 1528.18 350.674C1525.46 348.213 1521.48 346.982 1516.21 346.982H1500.68V376.518H1515.96ZM1584.02 427.95C1578.08 427.95 1573.54 426.295 1570.4 422.985C1567.26 419.675 1565.69 414.922 1565.69 408.726V361.495H1577.02V404.78C1577.02 409.533 1577.91 413.012 1579.69 415.219C1581.47 417.426 1584.36 418.529 1588.35 418.529C1595.22 418.529 1601.97 416.28 1608.59 411.782V361.495H1619.92V426.04H1610.37L1609.23 418.784C1601.16 424.894 1592.76 427.95 1584.02 427.95ZM1639.47 417.001H1663.28V370.534H1643.8V361.495H1674.61V417.001H1697.02V426.04H1639.47V417.001ZM1666.85 350.165C1664.38 350.165 1662.39 349.444 1660.86 348.001C1659.33 346.473 1658.57 344.479 1658.57 342.017C1658.57 339.471 1659.33 337.477 1660.86 336.034C1662.39 334.506 1664.38 333.742 1666.85 333.742C1669.39 333.742 1671.43 334.506 1672.96 336.034C1674.48 337.477 1675.25 339.471 1675.25 342.017C1675.25 344.479 1674.48 346.473 1672.96 348.001C1671.43 349.444 1669.39 350.165 1666.85 350.165ZM1713.52 417.001H1737.32V340.872H1716.7V331.833H1748.65V417.001H1771.06V426.04H1713.52V417.001ZM1814.42 427.95C1805.94 427.95 1799.27 424.979 1794.44 419.038C1789.6 413.012 1787.18 404.737 1787.18 394.213C1787.18 383.689 1789.64 375.329 1794.56 369.134C1799.57 362.853 1806.27 359.713 1814.68 359.713C1818.33 359.713 1821.68 360.307 1824.73 361.495C1827.87 362.683 1830.93 364.593 1833.9 367.224V331.833H1845.23V426.04H1835.17L1834.16 419.929C1831.35 422.475 1828.26 424.47 1824.86 425.913C1821.47 427.271 1817.99 427.95 1814.42 427.95ZM1817.73 418.656C1822.74 418.656 1828.13 416.534 1833.9 412.291V375.372C1831.01 373.08 1828.26 371.468 1825.63 370.534C1822.99 369.516 1820.11 369.006 1816.97 369.006C1810.94 369.006 1806.4 371.086 1803.35 375.244C1800.29 379.403 1798.76 385.556 1798.76 393.704C1798.76 401.767 1800.38 407.962 1803.6 412.291C1806.91 416.534 1811.62 418.656 1817.73 418.656ZM1896.49 427.95C1885.79 427.95 1877.64 425.064 1872.04 419.293C1866.53 413.437 1863.77 404.907 1863.77 393.704C1863.77 383.01 1866.48 374.693 1871.92 368.752C1877.35 362.726 1884.9 359.713 1894.58 359.713C1902.89 359.713 1909.34 362.005 1913.93 366.588C1918.59 371.086 1920.93 377.451 1920.93 385.684C1920.93 389.588 1920.63 393.11 1920.04 396.25H1874.72C1875.14 404.058 1877.18 409.745 1880.83 413.309C1884.56 416.874 1890.25 418.656 1897.89 418.656C1905.69 418.656 1912.95 417.341 1919.66 414.71V422.985C1916.77 424.512 1913.29 425.701 1909.22 426.549C1905.14 427.483 1900.9 427.95 1896.49 427.95ZM1910.62 388.357C1910.7 387.424 1910.74 386.235 1910.74 384.793C1910.74 379.53 1909.34 375.499 1906.54 372.698C1903.74 369.898 1899.67 368.497 1894.32 368.497C1888.47 368.497 1883.88 370.195 1880.57 373.589C1877.26 376.899 1875.31 381.822 1874.72 388.357H1910.62ZM1940.23 426.04V417.001H1956.4V370.534H1940.36V361.495H1965.95L1967.35 370.916C1970.4 367.351 1973.58 364.805 1976.89 363.278C1980.2 361.75 1984.07 360.986 1988.48 360.986C1990.09 360.986 1991.79 361.113 1993.57 361.368C1995.35 361.623 1996.75 361.962 1997.77 362.386V372.571C1994.8 371.722 1991.36 371.298 1987.46 371.298C1983.05 371.298 1979.31 371.892 1976.26 373.08C1973.29 374.184 1970.44 376.008 1967.73 378.554V417.001H1988.86V426.04H1940.23ZM2123.2 427.44C2111.49 427.44 2102.57 423.621 2096.46 415.983C2090.44 408.344 2087.42 397.184 2087.42 382.501C2087.42 367.818 2090.61 356.53 2096.97 348.637C2103.34 340.659 2112.38 336.67 2124.09 336.67C2127.99 336.67 2131.86 337.137 2135.67 338.071C2139.49 338.919 2142.8 340.15 2145.6 341.763V351.183C2142.29 349.825 2138.81 348.765 2135.17 348.001C2131.6 347.237 2128.33 346.855 2125.36 346.855C2108.13 346.855 2099.52 358.185 2099.52 380.846V383.647C2099.52 395.02 2101.51 403.464 2105.5 408.981C2109.58 414.498 2115.81 417.256 2124.22 417.256C2129.14 417.256 2133.68 416.534 2137.84 415.092V389.121H2120.02V379.573H2148.66V421.457C2145.43 423.239 2141.45 424.682 2136.69 425.785C2132.02 426.889 2127.53 427.44 2123.2 427.44ZM2165.41 426.04V417.001H2181.58V370.534H2165.54V361.495H2191.13L2192.53 370.916C2195.59 367.351 2198.77 364.805 2202.08 363.278C2205.39 361.75 2209.25 360.986 2213.66 360.986C2215.28 360.986 2216.97 361.113 2218.76 361.368C2220.54 361.623 2221.94 361.962 2222.96 362.386V372.571C2219.99 371.722 2216.55 371.298 2212.65 371.298C2208.23 371.298 2204.5 371.892 2201.44 373.08C2198.47 374.184 2195.63 376.008 2192.91 378.554V417.001H2214.05V426.04H2165.41ZM2268.36 427.95C2258.6 427.95 2251 424.937 2245.57 418.911C2240.14 412.885 2237.42 404.525 2237.42 393.831C2237.42 383.138 2240.14 374.778 2245.57 368.752C2251 362.726 2258.6 359.713 2268.36 359.713C2278.12 359.713 2285.71 362.726 2291.14 368.752C2296.58 374.778 2299.29 383.138 2299.29 393.831C2299.29 404.525 2296.58 412.885 2291.14 418.911C2285.71 424.937 2278.12 427.95 2268.36 427.95ZM2268.36 418.656C2274.72 418.656 2279.52 416.577 2282.74 412.418C2286.05 408.259 2287.71 402.064 2287.71 393.831C2287.71 377.281 2281.26 369.006 2268.36 369.006C2255.46 369.006 2249.01 377.281 2249.01 393.831C2249.01 402.064 2250.62 408.259 2253.84 412.418C2257.15 416.577 2261.99 418.656 2268.36 418.656ZM2334.63 427.95C2328.69 427.95 2324.15 426.295 2321.01 422.985C2317.87 419.675 2316.3 414.922 2316.3 408.726V361.495H2327.63V404.78C2327.63 409.533 2328.52 413.012 2330.3 415.219C2332.09 417.426 2334.97 418.529 2338.96 418.529C2345.84 418.529 2352.58 416.28 2359.2 411.782V361.495H2370.53V426.04H2360.99L2359.84 418.784C2351.78 424.894 2343.38 427.95 2334.63 427.95ZM2391.24 361.495H2400.78L2401.8 368.243C2408.25 362.556 2415.13 359.713 2422.43 359.713C2430.74 359.713 2437.28 362.683 2442.03 368.624C2446.87 374.481 2449.29 382.586 2449.29 392.94C2449.29 399.984 2448.1 406.18 2445.72 411.527C2443.43 416.874 2440.21 420.948 2436.05 423.749C2431.89 426.549 2427.09 427.95 2421.66 427.95C2414.62 427.95 2408.25 425.828 2402.57 421.584V452.265H2391.24V361.495ZM2419.37 418.656C2425.4 418.656 2429.94 416.534 2432.99 412.291C2436.13 408.047 2437.7 401.809 2437.7 393.577C2437.7 385.514 2436.17 379.403 2433.12 375.244C2430.15 371.086 2425.69 369.006 2419.75 369.006C2413.9 369.006 2408.17 371.171 2402.57 375.499V413.182C2407.83 416.831 2413.43 418.656 2419.37 418.656Z" fill="white"/>
</svg>
